<svg width="1071" height="272" viewBox="0 0 1071 272" fill="none" xmlns="http://www.w3.org/2000/svg">
<path d="M151.608 140.228L237.95 140.047C244.839 140.047 250.436 145.624 250.436 152.517V193.69C250.436 218.199 239.377 237.379 217.259 251.232C195.141 265.085 164.344 272 124.867 272C101.956 272 81.6507 268.939 63.9518 262.818C46.2528 256.696 32.0892 247.786 21.4154 236.087C10.7417 224.411 4.39636 210.263 2.35679 193.712C1.67693 187.591 1.11039 179.474 0.657151 169.362C0.203914 159.273 -0.0227051 148.209 -0.0227051 136.17C-0.0227051 124.131 0.203914 113.135 0.657151 103.159C1.11039 93.1833 1.67693 85.1119 2.35679 78.9904C4.39636 62.1902 10.7417 47.952 21.4154 36.2757C32.0665 24.5995 46.2528 15.6212 63.9518 9.38635C81.6733 3.12878 101.956 0 124.867 0C150.724 0 173.023 3.17413 191.719 9.52238C210.438 15.8706 224.896 24.8942 235.094 36.5931C245.292 48.2921 250.414 62.4169 250.414 78.9677V108.396C250.414 115.243 244.907 120.798 238.086 120.866L151.744 121.728C144.809 121.796 139.144 116.196 139.144 109.258V95.8133C139.144 88.6715 133.32 83.6382 126.431 85.52C122.646 86.563 120.765 89.465 120.765 94.2942V175.484C120.765 182.626 126.566 187.659 133.478 185.777C137.263 184.757 139.144 181.832 139.144 177.003V152.675C139.144 145.806 144.719 140.228 151.585 140.206L151.608 140.228Z" fill="#222222"/>
<path d="M621.32 171.743C621.32 175.597 624.448 178.726 628.3 178.726H709.815C718.449 178.726 725.452 185.732 725.452 194.37V251.958C725.452 260.596 718.449 267.602 709.815 267.602H529.766C521.132 267.602 514.13 260.596 514.13 251.958V21.0853C514.13 12.4472 521.132 5.44141 529.766 5.44141H703.696C712.33 5.44141 719.333 12.4472 719.333 21.0853V66.4073C719.333 75.0455 712.33 82.0512 703.696 82.0512H628.3C624.448 82.0512 621.32 85.18 621.32 89.0343C621.32 92.8886 624.448 96.0174 628.3 96.0174H694.518C703.152 96.0174 710.155 103.023 710.155 111.661V149.161C710.155 157.799 703.152 164.805 694.518 164.805H628.3C624.448 164.805 621.32 167.934 621.32 171.788V171.743Z" fill="#222222"/>
<path d="M842.002 157.323L859.746 14.2836C860.335 9.25033 864.596 5.44137 869.649 5.44137H932.151C937.227 5.44137 941.487 9.25033 942.054 14.3063L955.356 151.95C955.56 153.673 957.011 154.988 958.756 154.988H964.081L967.685 15.1451C967.82 9.72644 972.24 5.4187 977.656 5.4187H1061.01C1067.03 5.4187 1071.68 10.7467 1070.89 16.7095L1038.5 258.895C1037.85 263.861 1033.61 267.556 1028.62 267.556H928.185C923.562 267.556 919.551 264.382 918.486 259.87L904.322 199.925C904.118 199.04 903.347 198.428 902.441 198.428C901.535 198.428 900.764 199.04 900.56 199.925L886.396 259.87C885.331 264.382 881.32 267.556 876.697 267.556H775.829C770.866 267.556 766.674 263.906 765.971 259.009L731.072 16.8229C730.211 10.8147 734.879 5.4187 740.93 5.4187H824.144C829.56 5.4187 833.979 9.74912 834.115 15.1678L837.492 157.21" fill="#222222"/>
<path d="M504.748 249.94L461.124 154.081C460.013 151.655 461.26 148.821 463.775 147.937C471.095 145.375 477.032 142.087 481.633 138.052C487.185 133.177 491.332 127.623 494.051 121.365C496.771 115.13 498.516 108.827 499.332 102.479C500.125 96.1307 500.533 90.2132 500.533 84.7718C500.533 65.4777 496.907 50.0378 489.655 38.4749C482.381 26.912 472.704 18.5006 460.557 13.2859C448.41 8.07131 435.085 5.46399 420.582 5.46399H277.2C270.311 5.46399 264.736 11.0414 264.736 17.9338V255.132C264.736 262.024 270.311 267.602 277.2 267.602H359.463C366.352 267.602 371.927 262.024 371.927 255.132V199.358C371.927 198.315 372.697 197.431 373.74 197.295C375.53 197.068 377.637 196.841 378.204 198.133L390.917 258.283C392.345 263.77 397.308 267.602 402.973 267.602H493.417C502.482 267.602 508.51 258.215 504.77 249.962L504.748 249.94ZM419.222 102.592C411.676 104.021 405.806 105.177 401.138 106.469C399.959 106.991 398.849 107.331 397.784 107.489C384.187 112.069 383.167 119.12 378.657 143.402C378.068 145.602 376.867 147.007 374.465 147.007C372.063 147.007 370.861 145.602 370.272 143.402C364.086 110.006 364.471 109.598 329.708 102.615C327.509 102.207 325.9 100.824 325.9 98.4206C325.9 96.0173 327.509 94.6116 329.708 94.2262C364.494 87.2204 363.292 86.4269 370.272 53.4386C370.861 51.2394 372.063 49.8337 374.465 49.8337C376.867 49.8337 378.068 51.2394 378.657 53.4386C385.66 86.4269 384.663 87.2431 419.222 94.2262C421.624 94.6343 423.029 96.0173 423.029 98.4206C423.029 100.824 421.624 102.23 419.222 102.615V102.592Z" fill="#222222"/>
</svg>
